<svg version="1" xmlns="http://www.w3.org/2000/svg" width="682.667" height="682.667" viewBox="0 0 512.000000 512.000000"><path d="M232 1.1c-49.1 4.7-98.1 24.6-136.6 55.7C35.5 105 0 179.2 0 256c0 57.7 20.4 115.5 56.8 160.6 43.3 53.8 107.1 87.9 176.7 94.4 6.1.5 13.6 1 16.8 1h5.7V0l-7.7.1c-4.3.1-11.6.5-16.3 1zm-54 146.3c11.9 2.5 23.2 8.6 31.5 17 8.3 8.3 12.4 16 15.7 29.2 3.1 12.6 3.1 35.1 0 47.6-5.3 21.6-18.7 37.2-37.8 43.9-10.6 3.8-21.4 4.9-47.1 4.9H116v68H75V144.8l47.8.5c38.6.4 49.1.8 55.2 2.1z"/><path d="M116 217.5v35.7l24.8-.4 24.7-.3 5.7-2.8c11.1-5.4 15.2-14 15.2-31.7.1-17.4-4.4-27.3-14.6-32.7l-5.3-2.8-25.2-.3-25.3-.3v35.6zM355.4 144.5c-31.7 5.7-51 26.4-58.4 62.3-3.1 15.3-4.3 34.2-3.6 56.7.8 29 4.6 46.7 13.1 62.2 5.1 9.2 16.9 20.7 26 25.5 22.1 11.5 56.9 12.6 80 2.4 21.7-9.7 35.8-30.1 40-58.4.8-5.3 1.5-12.1 1.5-15V275l-19.7.2-19.7.3-1.2 7.6c-4.5 29.1-13.7 38.8-37.2 39.2-10.2.2-16.7-1.4-23.7-5.8-13-8.2-16.5-21.8-16.5-64 0-39 2.2-51.6 10.7-60.6 2.5-2.7 7.1-6.1 10.2-7.6 5.3-2.6 6.4-2.8 18.6-2.8 11 .1 13.7.4 17.5 2.2 8.8 4.1 16.4 14.9 19.1 27.1l1.1 5.2h40.1l-.6-8.3c-1.2-15.3-6.7-29.8-15.3-40.3-8.2-10-24.8-19.2-40.5-22.4-11-2.3-30.4-2.5-41.5-.5z"/></svg>