<svg version="1" xmlns="http://www.w3.org/2000/svg" width="682.667" height="682.667" viewBox="0 0 512.000000 512.000000"><path d="M232 1.1c-49.1 4.7-98.1 24.6-136.6 55.7C35.5 105 0 179.2 0 256c0 57.7 20.4 115.5 56.8 160.6 43.3 53.8 107.1 87.9 176.7 94.4 6.1.5 13.6 1 16.8 1h5.7V0l-7.7.1c-4.3.1-11.6.5-16.3 1zm-59.5 145.3c34.9 5.3 53.2 27 55.2 65.6 1.8 33.5-10 58.5-33.1 70.2-12.2 6.2-18.2 7.1-49.8 7.6l-28.8.4V358H75V145h44.3c32.4 0 46.6.4 53.2 1.4z"/><path d="M116.2 217.2l.3 35.3H140c20.9 0 24.1-.2 28.8-2 6.4-2.3 11.8-7.3 14.4-13.1 4.4-10.1 4.2-30.2-.4-40-2.8-6-8.3-11.1-14.6-13.4-4.7-1.8-7.8-2-28.8-2H116l.2 35.2zM356 144.5c-14.7 2.7-26 8-35.6 16.7-11.4 10.5-19.1 25.9-23.5 47-4.5 22.4-4.5 69.3.1 90.6 3.9 18.3 11.9 33.5 22.8 43.2 14.2 12.7 30.7 18 55.7 18 25 0 40.4-5.3 54.8-18.9 14-13.2 21.1-30.7 23.3-56.9l.7-8.2h-19.7c-14.9 0-19.7.3-20 1.2-.2.7-.8 4.4-1.4 8.3-2.7 17.2-8.3 28.2-16.9 32.8-7.1 3.8-19.2 5.5-28.6 3.9-13.4-2.3-20.8-7.4-25.6-17.6-5.2-10.9-5.6-15-5.6-53.1 0-30 .3-36.1 1.8-42.5 4.5-19.3 15.9-28.1 36.6-28.1 11.4 0 18.3 1.8 24.2 6.4 5.1 3.9 10.2 12.8 12.6 21.9l1.7 6.8h39.9l-.7-7.8c-1.7-19.4-7.1-31.9-19.2-43.9-10.3-10.3-21.5-16.1-37.1-19.3-11.8-2.3-28.7-2.6-40.3-.5z"/></svg>